<svg width="1920" height="1003" viewBox="0 0 1920 1003" fill="none" xmlns="http://www.w3.org/2000/svg">
<rect y="60" width="1920" height="834" fill="#FBFBFB"/>
<path fill-rule="evenodd" clip-rule="evenodd" d="M878.083 501.5C878.083 732.307 620.831 919.417 303.5 919.417C-13.8339 919.417 -271.083 732.307 -271.083 501.5C-271.083 270.691 -13.8339 83.5833 303.5 83.5833C620.831 83.5833 878.083 270.691 878.083 501.5ZM993 501.5C993 778.473 684.303 1003 303.5 1003C-77.3001 1003 -386 778.473 -386 501.5C-386 224.529 -77.3001 0 303.5 0C684.303 0 993 224.529 993 501.5ZM261.042 585.083C252.757 585.083 246.042 578.368 246.042 570.083V307.542C246.042 299.257 252.757 292.542 261.042 292.542H345.958C354.243 292.542 360.958 299.257 360.958 307.542V570.083C360.958 578.368 354.243 585.083 345.958 585.083H261.042ZM261.042 710.458C252.757 710.458 246.042 703.743 246.042 695.458V641.875C246.042 633.591 252.757 626.875 261.042 626.875H345.958C354.243 626.875 360.958 633.591 360.958 641.875V695.458C360.958 703.743 354.243 710.458 345.958 710.458H261.042Z" fill="#EDEDED"/>
</svg>
