<svg width="135" height="135" viewBox="0 0 135 135" fill="none" xmlns="http://www.w3.org/2000/svg">
<path d="M52.6632 63.7839H34.3231C32.1507 63.7839 30.3896 65.545 30.3896 67.7174V98.0546C30.3896 100.227 32.1507 101.988 34.3231 101.988H52.6632C54.8356 101.988 56.5967 100.227 56.5967 98.0546V67.7174C56.5969 65.545 54.8356 63.7839 52.6632 63.7839Z" fill="url(#paint0_linear_83_44)"/>
<path d="M83.0748 14.0498H64.7348C62.5623 14.0498 60.8013 15.8109 60.8013 17.9833V98.0548C60.8013 100.227 62.5621 101.988 64.7348 101.988H83.0748C85.2472 101.988 87.0083 100.227 87.0083 98.0548V17.9835C87.0083 15.8111 85.2472 14.0498 83.0748 14.0498Z" fill="url(#paint1_linear_83_44)"/>
<path d="M113.487 45.2993H95.1464C92.974 45.2993 91.2129 47.0604 91.2129 49.2328V98.0548C91.2129 100.227 92.974 101.988 95.1464 101.988H113.487C115.659 101.988 117.42 100.227 117.42 98.0548V49.2331C117.42 47.0607 115.659 45.2993 113.487 45.2993Z" fill="url(#paint2_linear_83_44)"/>
<path d="M133.146 115.713L113.852 103.698C112.638 102.942 111.112 102.905 109.863 103.598C108.613 104.292 107.839 105.608 107.839 107.037V115.118H19.882V27.1621H27.9633C29.3919 27.1621 30.7087 26.3871 31.4022 25.1381C32.0962 23.8891 32.0577 22.3621 31.3025 21.1492L19.2877 1.85415C18.5694 0.700844 17.307 0 15.9485 0C14.5898 0 13.3276 0.700844 12.6094 1.85415L0.594293 21.149C-0.160867 22.3619 -0.198836 23.8888 0.494625 25.1378C1.18835 26.3869 2.50461 27.1618 3.93345 27.1618H12.0148V119.052C12.0148 121.224 13.7759 122.985 15.9483 122.985H107.838V131.067C107.838 132.495 108.613 133.812 109.862 134.506C110.458 134.836 111.115 135.001 111.772 135.001C112.494 135.001 113.216 134.802 113.851 134.406L133.146 122.391C134.299 121.673 135 120.41 135 119.052C135 117.693 134.3 116.431 133.146 115.713Z" fill="url(#paint3_linear_83_44)"/>
<mask id="mask0_83_44" style="mask-type:alpha" maskUnits="userSpaceOnUse" x="0" y="0" width="135" height="135">
<rect width="135" height="135" fill="#C2C2C2"/>
</mask>
<g mask="url(#mask0_83_44)">
</g>
<defs>
<linearGradient id="paint0_linear_83_44" x1="32.6221" y1="102.554" x2="65.7105" y2="75.8174" gradientUnits="userSpaceOnUse">
<stop stop-color="#181EC9"/>
<stop offset="1" stop-color="#4A0B09"/>
</linearGradient>
<linearGradient id="paint1_linear_83_44" x1="63.0337" y1="103.291" x2="111.726" y2="86.198" gradientUnits="userSpaceOnUse">
<stop stop-color="#181EC9"/>
<stop offset="1" stop-color="#4A0B09"/>
</linearGradient>
<linearGradient id="paint2_linear_83_44" x1="93.4454" y1="102.828" x2="135.629" y2="79.8565" gradientUnits="userSpaceOnUse">
<stop stop-color="#181EC9"/>
<stop offset="1" stop-color="#4A0B09"/>
</linearGradient>
<linearGradient id="paint3_linear_83_44" x1="11.5" y1="137.001" x2="129.503" y2="-2.00002" gradientUnits="userSpaceOnUse">
<stop stop-color="#181EC9"/>
<stop offset="1" stop-color="#4A0B09"/>
</linearGradient>
</defs>
</svg>
