<svg width="115" height="28" viewBox="0 0 115 28" fill="none" xmlns="http://www.w3.org/2000/svg">
<path d="M34.5531 10.6777C34.5531 9.01161 35.8559 7.65625 37.4573 7.65625V8.98438C36.5599 8.98438 35.8297 9.74403 35.8297 10.6777H34.5531ZM40.8892 13.5886C41.3155 13.7314 41.767 13.8149 42.2349 13.8296C41.9314 14.4105 41.5726 14.9023 41.2324 15.3681C40.5518 16.3001 40.014 17.0363 40.014 18.2618V20.0078C40.014 21.1064 39.155 22 38.0991 22H36.8793C35.8235 22 34.9644 21.1064 34.9644 20.0078V18.2618C34.9644 17.0363 34.4267 16.3001 33.7461 15.3681C32.9321 14.2537 32.0102 12.9916 32.0001 10.7109H32L32.0001 10.6729C32.0198 7.54134 34.4746 5 37.4892 5C37.9778 5 38.4517 5.06718 38.9028 5.19234C38.5742 5.54007 38.2933 5.93643 38.0711 6.37015C37.8808 6.34265 37.6867 6.32812 37.4892 6.32812C35.1717 6.32812 33.2853 8.28503 33.2766 10.6941C33.2821 12.5376 34.0012 13.5223 34.7625 14.5644C35.3531 15.3731 35.9601 16.2041 36.1669 17.3848H38.8116C39.0184 16.2041 39.6254 15.3731 40.216 14.5644C40.451 14.2427 40.682 13.9263 40.8892 13.5886ZM38.7374 20.0078V18.7129H36.241V20.0078C36.241 20.374 36.5273 20.6719 36.8793 20.6719H38.0991C38.4512 20.6719 38.7374 20.374 38.7374 20.0078ZM44.8552 9.41602C44.7949 9.65933 44.7016 9.8889 44.5814 10.1002L45.3919 10.9434L44.4893 11.8825L43.6787 11.0393C43.4727 11.1662 43.2483 11.264 43.0104 11.3268V12.5039H41.7338V11.3209C41.504 11.258 41.2869 11.1623 41.0871 11.0393L40.2766 11.8825L39.3739 10.9434L40.1844 10.1002C40.0642 9.8889 39.971 9.65933 39.9106 9.41602H38.7658V8.08789H39.9106C39.971 7.84457 40.0642 7.61501 40.1844 7.40372L39.3739 6.56055L40.2766 5.62139L41.0871 6.46457C41.2961 6.33591 41.5242 6.23734 41.7658 6.17469V5H43.0423V6.18597C43.2683 6.24888 43.4819 6.34343 43.6787 6.46457L44.4893 5.62139L45.3919 6.56055L44.5814 7.40372C44.7016 7.61501 44.7949 7.84457 44.8552 8.08789H46V9.41602H44.8552ZM42.383 10.0801C43.0868 10.0801 43.6595 9.48424 43.6595 8.75195C43.6595 8.01967 43.0868 7.42383 42.383 7.42383C42.1088 7.42383 41.8549 7.51449 41.6467 7.66792L41.341 7.98595C41.1934 8.20255 41.1064 8.46674 41.1064 8.75195C41.1064 9.48424 41.679 10.0801 42.383 10.0801Z" fill="white"/>
<path d="M1.07812 22V5.27273H8.2983C9.53977 5.27273 10.6261 5.51776 11.5572 6.00781C12.4883 6.49787 13.2125 7.18667 13.7298 8.07422C14.247 8.96177 14.5057 9.99905 14.5057 11.1861C14.5057 12.384 14.2389 13.4213 13.7053 14.2979C13.1771 15.1746 12.4338 15.8498 11.4755 16.3235C10.5226 16.7972 9.40909 17.0341 8.13494 17.0341H3.82244V13.5057H7.22017C7.75379 13.5057 8.20845 13.4131 8.58416 13.228C8.96532 13.0374 9.25663 12.7679 9.4581 12.4194C9.66501 12.0709 9.76847 11.6598 9.76847 11.1861C9.76847 10.7069 9.66501 10.2985 9.4581 9.96094C9.25663 9.6179 8.96532 9.35653 8.58416 9.17685C8.20845 8.99171 7.75379 8.89915 7.22017 8.89915H5.61932V22H1.07812ZM16.1719 22V5.27273H23.392C24.6335 5.27273 25.7198 5.4987 26.6509 5.95064C27.582 6.40258 28.3062 7.05327 28.8235 7.9027C29.3408 8.75213 29.5994 9.77036 29.5994 10.9574C29.5994 12.1553 29.3326 13.1654 28.799 13.9876C28.2708 14.8098 27.5276 15.4305 26.5692 15.8498C25.6164 16.2691 24.5028 16.4787 23.2287 16.4787H18.9162V12.9503H22.3139C22.8475 12.9503 23.3022 12.8849 23.6779 12.7543C24.0591 12.6181 24.3504 12.4031 24.5518 12.109C24.7588 11.815 24.8622 11.4311 24.8622 10.9574C24.8622 10.4782 24.7588 10.0889 24.5518 9.78942C24.3504 9.48449 24.0591 9.26124 23.6779 9.11967C23.3022 8.97266 22.8475 8.89915 22.3139 8.89915H20.7131V22H16.1719ZM25.973 14.3224L30.1548 22H25.2216L21.1378 14.3224H25.973Z" fill="white"/>
<path d="M52.9716 5.27273H57.4474V16.7401C57.442 17.8291 57.167 18.7874 56.6225 19.6151C56.0835 20.4373 55.3375 21.0798 54.3846 21.5426C53.4371 22 52.3454 22.2287 51.1094 22.2287C50.0367 22.2287 49.0566 22.0436 48.169 21.6733C47.2815 21.2976 46.5736 20.7095 46.0455 19.9091C45.5173 19.1032 45.2559 18.0578 45.2614 16.7727H49.8026C49.8189 17.192 49.8897 17.5459 50.0149 17.8345C50.1456 18.1231 50.3253 18.3409 50.554 18.4879C50.7881 18.6295 51.0713 18.7003 51.4034 18.7003C51.741 18.7003 52.0241 18.6268 52.2528 18.4798C52.487 18.3327 52.6639 18.1149 52.7837 17.8263C52.9035 17.5323 52.9661 17.1702 52.9716 16.7401V5.27273ZM59.5996 5.27273H65.2516L69.1394 14.7472H69.3354L73.2232 5.27273H78.8752V22H74.432V12.3295H74.3013L70.5769 21.8693H67.8979L64.1735 12.2642H64.0428V22H59.5996V5.27273ZM85.3725 22H80.4719L85.9933 5.27273H92.2006L97.7219 22H92.8214L89.1623 9.87926H89.0316L85.3725 22ZM84.4577 15.4006H93.6708V18.7983H84.4577V15.4006ZM113.806 5.27273V22H110.016L103.972 13.2116H103.874V22H99.333V5.27273H103.188L109.134 14.0284H109.265V5.27273H113.806Z" fill="white"/>
</svg>
