<svg width="135" height="135" viewBox="0 0 135 135" fill="none" xmlns="http://www.w3.org/2000/svg">
<path d="M61.0277 0.0871735C53.9376 0.875504 49.5204 1.77645 44.5685 3.43758C33.9615 6.98505 24.9863 12.5315 17.2772 20.3022C15.4203 22.1886 13.1413 24.6943 12.2409 25.905C10.7779 27.7913 10.5528 28.2981 10.4403 29.5651C10.3559 30.7757 10.4684 31.198 11.003 32.0145C12.0159 33.4786 13.3382 34.2669 14.8575 34.2669C18.1213 34.2669 32.9767 32.831 33.7364 32.4368C37.1408 30.6912 37.0282 25.905 33.5676 24.3565C32.4703 23.8778 32.0764 23.8497 29.3473 24.1312C27.6873 24.272 26.2805 24.3565 26.2242 24.3001C26.0273 24.1312 30.1351 20.8653 32.7798 19.1197C54.6129 4.50745 83.6768 5.83072 104.075 22.3575C106.86 24.6098 111.671 29.5932 113.894 32.5213C122.166 43.4453 126.527 57.2692 125.908 70.5863C125.711 74.894 125.486 76.5833 124.445 81.5103C123.573 85.5365 123.685 86.4656 125.317 88.0422C126.161 88.8587 126.527 88.9995 127.962 89.1121C129.341 89.2247 129.819 89.1121 130.607 88.6335C132.013 87.7607 132.407 87.0005 133.195 83.7627C140.623 52.3985 124.586 19.7954 95.0716 6.25304C89.1069 3.52203 82.3825 1.55122 75.8551 0.593956C72.9009 0.171638 63.2223 -0.166222 61.0277 0.0871735Z" fill="url(#paint0_linear_80_147)"/>
<path d="M65.689 30.6849C64.648 31.1636 63.7195 32.149 63.3256 33.1907C63.1287 33.7256 63.0161 39.6662 63.0161 51.1533C63.0161 70.0451 62.988 69.5946 64.7324 70.8897C66.5893 72.2693 101.984 90.8795 102.997 91.0203C107.048 91.5834 109.637 86.5718 106.823 83.6438C106.232 83.0244 100.296 79.7303 88.9851 73.7333L72.0476 64.7802L71.9632 48.9573C71.8788 33.5004 71.8788 33.1344 71.2879 32.3742C70.9785 31.9519 70.3876 31.3325 69.9937 31.0509C69.0371 30.3471 66.8144 30.15 65.689 30.6849Z" fill="url(#paint1_linear_80_147)"/>
<path d="M4.8663 47.1907C2.78428 48.1479 2.22157 49.3586 1.12429 55.2429C-1.4923 69.2639 0.477178 83.3975 6.83578 96.3486C10.2402 103.275 13.7571 108.286 19.2435 113.917C31.82 126.868 48.5887 134.273 66.933 134.949C85.5586 135.652 103.79 128.698 117.239 115.803C119.799 113.354 123.063 109.581 124.02 108.033C124.723 106.878 124.808 104.992 124.189 103.838C123.626 102.712 122.219 101.614 121.15 101.416C119.659 101.135 102.187 102.627 101.286 103.106C98.5291 104.513 97.9663 108.089 100.161 110.257C101.343 111.468 102.581 111.721 105.901 111.411C107.448 111.271 108.742 111.214 108.798 111.271C108.855 111.299 107.842 112.172 106.548 113.185C95.9406 121.463 82.6326 126.052 69.3245 126.052C57.6483 126.052 45.0718 122.251 35.4495 115.803C14.6574 101.867 4.95071 77.5414 10.6622 53.6663C11.1124 51.7799 11.1686 51.1042 10.9154 50.1751C10.5497 48.7673 9.17102 47.3033 7.84865 46.9373C6.49815 46.5713 6.18866 46.5994 4.8663 47.1907Z" fill="url(#paint2_linear_80_147)"/>
<defs>
<linearGradient id="paint0_linear_80_147" x1="21.0278" y1="-1.32085" x2="91.1157" y2="114.051" gradientUnits="userSpaceOnUse">
<stop stop-color="#181EC9"/>
<stop offset="1" stop-color="#4A0B09"/>
</linearGradient>
<linearGradient id="paint1_linear_80_147" x1="66.8484" y1="29.4807" x2="120.115" y2="75.9964" gradientUnits="userSpaceOnUse">
<stop stop-color="#181EC9"/>
<stop offset="1" stop-color="#4A0B09"/>
</linearGradient>
<linearGradient id="paint2_linear_80_147" x1="10.6145" y1="45.3891" x2="79.718" y2="160.257" gradientUnits="userSpaceOnUse">
<stop stop-color="#181EC9"/>
<stop offset="1" stop-color="#4A0B09"/>
</linearGradient>
</defs>
</svg>
