<svg width="66" height="66" viewBox="0 0 66 66" fill="none" xmlns="http://www.w3.org/2000/svg">
<path d="M32.833 32.8333C37.9416 32.8333 42.083 28.6919 42.083 23.5833C42.083 18.4747 37.9416 14.3333 32.833 14.3333C27.7244 14.3333 23.583 18.4747 23.583 23.5833C23.583 28.6919 27.7244 32.8333 32.833 32.8333Z" stroke="#333333" stroke-width="3"/>
<path d="M32.8333 63.6666C49.8621 63.6666 63.6666 49.8621 63.6666 32.8333C63.6666 15.8045 49.8621 2 32.8333 2C15.8045 2 2 15.8045 2 32.8333C2 49.8621 15.8045 63.6666 32.8333 63.6666Z" stroke="#333333" stroke-width="3"/>
<path d="M51.2376 57.5C50.747 48.5845 48.0174 42.0833 32.8326 42.0833C17.6481 42.0833 14.9184 48.5845 14.4277 57.5" stroke="#333333" stroke-width="3" stroke-linecap="round"/>
</svg>
